<?xml version="1.0" encoding="utf-8"?>
<!-- Generator: Adobe Illustrator 16.0.0, SVG Export Plug-In . SVG Version: 6.00 Build 0)  -->
<!DOCTYPE svg PUBLIC "-//W3C//DTD SVG 1.1//EN" "http://www.w3.org/Graphics/SVG/1.1/DTD/svg11.dtd">
<svg version="1.1" xmlns="http://www.w3.org/2000/svg" xmlns:xlink="http://www.w3.org/1999/xlink" x="0px" y="0px" width="500px"
	 height="500px" viewBox="0 0 500 500" enable-background="new 0 0 500 500" xml:space="preserve">
<g id="Layer_1">
	<path d="M459.517,273.758C459.517,188.753,393.09,122,308.29,122H213V57.937c0-28.964-23.551-52.528-52.5-52.528
		S108,28.973,108,57.937v163.967c0,27.089,11.568,54.514,31.739,75.244c16.721,17.185,38.022,28.329,60.032,31.737l-0.044,115.316
		c0,29.631,24.239,53.738,54.032,53.738c29.792,0,54.03-24.107,54.03-53.738l-0.046-18.818
		C391.796,423.319,459.517,356.049,459.517,273.758z M116,221.904V57.937c0-24.553,19.962-44.528,44.5-44.528S205,33.384,205,57.937
		V230h1l0,0h102.29c24.345,0,44.296,19.461,45.578,43.684c0.033,0.719,0.055,1.515,0.055,2.241c0,25.364-20.58,46.075-45.876,46.075
		h-94.024C162.721,322,116,274.291,116,221.904z M303.757,418H300v25.225l-0.068,1.068c-0.051,25.193-20.75,45.674-46.115,45.674
		c-25.38,0-46.061-20.502-46.088-45.714l0.03-1.806L207.746,330h100.301c28.838,0,52.451-22.686,53.797-51.262
		c0.051-0.957,0.079-1.845,0.079-2.813c0-29.775-24.06-53.925-53.633-53.925H214v-92h94.29c80.329,0,143.254,63.466,143.254,144.001
		C451.544,353.192,385.247,418,303.757,418z"/>
</g>
<g id="Layer_2" display="none">
	<g display="inline">
		<path d="M309.451,127H213v94h96.451c30.166,0,54.708,25.129,54.708,55.501c0,30.37-24.654,55.499-54.958,55.499H206.868
			l-0.001,114.342l-0.045,1.572c0.028,25.723,21.099,46.58,46.994,46.58c25.881,0,47.063-20.925,47.111-46.63l0.074-1.119V421h3.826
			c83.142,0,150.782-66.202,150.782-146.999C455.608,191.833,391.409,127,309.451,127z"/>
		<path d="M309.134,323c25.818,0,46.823-20.613,46.823-46.498c0-25.887-20.893-46.502-46.573-46.502h-104.71H204V53.645
			c0-25.059-20.441-45.446-45.5-45.446c-25.059,0-45.5,20.387-45.5,45.446v167.292C113,274.56,161.257,323,213.702,323H309.134z"/>
	</g>
</g>
<g id="Layer_3" display="none">
	<path display="inline" d="M457.2,276.979C457.2,194.062,392.049,129,309.134,129H218V62.772v-2.939
		c0-31.286-25.215-56.739-56.5-56.739S105,28.548,105,59.833v1.468v163.187c0,28.237,11.779,56.846,32.808,78.494
		C156.229,321.944,180,333.879,204,336.693v109.309l0.034,1.719c0,27.594,22.704,49.962,50.296,49.962
		c27.593,0,50.485-22.368,50.485-49.962l0.185-0.98v-21.787C387,424.953,457.2,359.893,457.2,276.979z M113,224.489V61.302v-1.468
		c0-26.916,21.585-48.733,48.5-48.733c26.914,0,48.5,21.817,48.5,48.733v2.939V229h0.077h68.662h29.533h0.862
		c27.592,0,49.84,22.407,49.84,49.998c0,27.598-22.492,50.002-50.085,50.002h-30.15h-63.5C160.596,329,113,279.132,113,224.489z"/>
</g>
<g id="Layer_4" display="none">
	<path display="inline" d="M415.299,158.275C386.228,129.103,347.034,113,304.938,113h-98.756H206V55.524v-2.93
		c0-26.835-21.668-48.586-48.499-48.586C130.668,4.008,109,25.759,109,52.594v1.463v162.696c0,48.022,37,92.596,83,102.49v2.042
		v116.206l-0.021,1.604l0.021,0.109v0.109c0,31.867,25.973,57.793,58.002,57.793c32.027,0,57.998-25.926,57.998-57.793v-0.184
		l0.015-0.183L308,438.151v-13.746c19-0.891,36.621-4.871,53.752-11.866c19.025-7.771,36.241-18.894,50.977-33.06
		c30.637-29.452,47.557-68.765,47.557-110.662C460.285,226.687,444.34,187.417,415.299,158.275z M300,416.615v21.72l0.245,0.979
		c0,27.51-22.495,49.812-50.001,49.812c-27.513,0-50.198-22.302-50.198-49.812L200,437.601V321h11.326h93.367h2.057l0.079,0.088
		c26.525-1.131,47.8-23.219,47.8-50.018c0-27.509-22.177-50.07-49.691-50.07h-0.855h-29.446H206V121h98.938
		c82.669,0,147.214,65.142,147.214,147.809C452.151,351.475,383,416.615,300,416.615z"/>
</g>
</svg>
